<svg viewBox="0 0 16 16" fill="none" xmlns="http://www.w3.org/2000/svg">
    <path
        d="M11.4145 1.24682C10.5048 0.337121 8.98525 0.5105 8.3039 1.60174L6.40708 4.63944C6.40689 4.63977 6.40609 4.64111 6.40253 4.64366C6.39819 4.64677 6.38891 4.65215 6.37334 4.65653C6.33933 4.66611 6.29489 4.66537 6.25521 4.65066C5.60782 4.41066 4.49655 4.14701 3.34259 4.58167C2.72088 4.81585 2.41064 5.35481 2.37683 5.90162C2.34458 6.42334 2.55529 6.9597 2.94284 7.34725L5.29983 9.70422L0.846487 14.1575C0.586137 14.4179 0.586137 14.8401 0.846487 15.1004C1.10684 15.3608 1.52901 15.3608 1.78936 15.1004L6.24265 10.6471L8.59965 13.0041C8.9872 13.3917 9.52354 13.6023 10.0453 13.5701C10.5921 13.5363 11.131 13.2261 11.3652 12.6043C11.7999 11.4503 11.5362 10.3391 11.2963 9.69164C11.2815 9.65201 11.2808 9.60764 11.2904 9.57352C11.2947 9.558 11.3001 9.54876 11.3033 9.54435C11.3058 9.5408 11.3071 9.54 11.3074 9.53986L14.3451 7.64301C15.4364 6.96157 15.6098 5.44205 14.7001 4.53235L11.4145 1.24682ZM9.43489 2.30794C9.66202 1.94419 10.1685 1.8864 10.4717 2.18963L13.7573 5.47516C14.0605 5.77839 14.0027 6.28491 13.639 6.51204L10.6013 8.4089C9.97145 8.80212 9.83123 9.57578 10.046 10.1551C10.2366 10.6691 10.3886 11.4145 10.1175 12.1343C10.0989 12.1835 10.0783 12.2012 10.0657 12.2099C10.0496 12.2211 10.0177 12.2358 9.96302 12.2393C9.84465 12.2466 9.67567 12.1944 9.54249 12.0612L3.88564 6.4044C3.75248 6.27124 3.70031 6.10222 3.70763 5.98389C3.71101 5.92914 3.72585 5.89737 3.737 5.8812C3.7457 5.86857 3.76344 5.84793 3.81257 5.82942C4.53246 5.55827 5.27774 5.7103 5.79174 5.90086C6.37112 6.11563 7.14475 5.97546 7.53804 5.34563L9.43489 2.30794Z"
        fill="#232323" />
</svg>