<svg viewBox="0 0 16 16" xmlns="http://www.w3.org/2000/svg">
    <path
        d="M11.4145 1.24682C10.5048 0.337121 8.98525 0.5105 8.3039 1.60174L6.50127 4.48859L7.46459 5.45195C7.49033 5.4182 7.5149 5.38276 7.53804 5.34563L9.43489 2.30794C9.66202 1.94419 10.1685 1.8864 10.4717 2.18963L13.7573 5.47516C14.0605 5.77839 14.0027 6.28491 13.639 6.51204L10.6013 8.4089C10.5641 8.43206 10.5287 8.45656 10.495 8.48228L11.4583 9.44562L14.3451 7.64301C15.4364 6.96157 15.6098 5.44205 14.7001 4.53235L11.4145 1.24682Z"
        fill="#232323" />
    <path
        d="M2.37683 5.90161C2.40099 5.51075 2.56641 5.12388 2.88589 4.84948L3.85156 5.81516C3.83856 5.81978 3.82557 5.82454 3.81257 5.82942C3.76344 5.84793 3.7457 5.86857 3.737 5.8812C3.72585 5.89737 3.71101 5.92914 3.70763 5.98389C3.70031 6.10222 3.75248 6.27124 3.88564 6.4044L9.54249 12.0612C9.67567 12.1944 9.84465 12.2466 9.96302 12.2393C10.0177 12.2358 10.0496 12.2211 10.0657 12.2099C10.0783 12.2012 10.0989 12.1835 10.1175 12.1343C10.1223 12.1213 10.1272 12.1083 10.1317 12.0953L11.0974 13.061C10.823 13.3805 10.4361 13.5459 10.0453 13.5701C9.52354 13.6023 8.9872 13.3917 8.59965 13.0041L6.24265 10.6471L1.78936 15.1004C1.52901 15.3608 1.10684 15.3608 0.846487 15.1004C0.586137 14.84 0.586137 14.4179 0.846487 14.1575L5.29983 9.70422L2.94284 7.34725C2.55529 6.9597 2.34458 6.42334 2.37683 5.90161Z"
        fill="#232323" />
    <path
        d="M1.33859 1.33857C1.07824 1.59892 1.07824 2.02109 1.33859 2.28144L13.7241 14.6669C13.9845 14.9273 14.4066 14.9273 14.667 14.6669C14.9273 14.4066 14.9273 13.9844 14.667 13.7241L2.2814 1.33857C2.02106 1.07822 1.59889 1.07822 1.33859 1.33857Z"
        fill="#232323" />
</svg>